<?xml version="1.0" encoding="utf-8"?>
<?xml-stylesheet type="text/xsl" href="rss1.xsl"?>
<rss version="2.0" xmlns:atom="http://www.w3.org/2005/Atom" xmlns:content="http://purl.org/rss/1.0/modules/content/" xmlns:dc="http://purl.org/dc/elements/1.1/" xmlns:media="http://search.yahoo.com/mrss/">
<channel>
 <title>Getty</title>
 <link>http://www.gettyimg.com/</link>
 <atom:link href="http://www.gettyimg.com/" rel="self" type="application/rss+xml" />

 
                <item>
                <title><![CDATA[【Cinema Center】MOVIE - The Net (1080p) (DTS-HD) (MA) (5.1) (Bluray) (Remux) (1995) [MAVERICK]]]></title>
                <link><![CDATA[https://sharemania.us/threads/the-net-1080p-dts-hd-ma-5-1-bluray-remux-1995-maverick.223840/]]></link>
                <description><![CDATA[<article>
<blockquote class="messageText SelectQuoteContainer ugc baseHtml">
<div style="text-align: center"><img src="https://m.media-amazon.com/images/M/MV5BYTQ0NjZjNmEtNzUzMi00M2E4LTkxNDMtODY5ODA3NGE0YWI5XkEyXkFqcGdeQXVyNDQ0MTYzMDA@._V1_.jpg" class="bbCodeImage LbImage" alt="[​IMG]" data-url="https://m.media-amazon.com/images/M/MV5BYTQ0NjZjNmEtNzUzMi00M2E4LTkxNDMtODY5ODA3NGE0YWI5XkEyXkFqcGdeQXVyNDQ0MTYzMDA@._V1_.jpg" style="">​</div><b>Plot: </b>A computer programmer stumbles upon a conspiracy, putting her life and the lives of those around her in great danger.<br>
<div style="text-align: center"><img src="https://i.postimg.cc/Dwj3jzZj/The-Net-1080p-DTS-HD-MA-5-1-Bluray-Remux-1995-MAVERICK.jpg" class="bbCodeImage LbImage" alt="[​IMG]" data-url="https://i.postimg.cc/Dwj3jzZj/The-Net-1080p-DTS-HD-MA-5-1-Bluray-Remux-1995-MAVERICK.jpg" style="">​</div>
<div class="ToggleTriggerAnchor bbCodeSpoilerContainer">
<button type="button" class="button bbCodeSpoilerButton ToggleTrigger Tooltip JsOnly" data-target="> .SpoilerTarget"><span>Spoiler: <span class="SpoilerTitle">IMDB:</span></span></button>
<div class="SpoilerTarget bbCodeSpoilerText"><a href="https://www.imdb.com/title/tt0113957/?ref_=rvi_tt" target="_blank" class="externalLink" rel="nofollow">https://www.imdb.com/title/tt0113957/?ref_=rvi_tt</a></div>
</div>
<div class="ToggleTriggerAnchor bbCodeSpoilerContainer">
<button type="button" class="button bbCodeSpoilerButton ToggleTrigger Tooltip JsOnly" data-target="> .SpoilerTarget"><span>Spoiler: <span class="SpoilerTitle">Media Info:</span></span></button>
<div class="SpoilerTarget bbCodeSpoilerText">General<br>
Complete name : C:\Users\Maverick\Desktop\The Net (1080p) (DTS-HD) (MA) (5.1) (Bluray) (Remux) (1995) [MAVERICK].mkv<br>
Format : Matroska<br>
Format version : Version 4<br>
File size : 23.2 GiB<br>
Duration : 1 h 54 min<br>
Overall bit rate mode : Variable<br>
Overall bit rate : 29.1 Mb/s<br>
Movie name : The Net (1080p) (DTS-HD) (MA) (5.1) (Bluray) (Remux) (1995) [MAVERICK]<br>
Encoded date : UTC 2023-07-03 13:37:38<br>
Writing application : mkvmerge v78.0 ('Running') 64-bit<br>
Writing library : libebml v1.4.4 + libmatroska v1.7.1<br>
<br>
Video<br>
ID : 1<br>
Format : AVC<br>
Format/Info : Advanced Video Codec<br>
Format profile : High@L4.1<br>
Format settings : CABAC / 2 Ref Frames<br>
Format settings, CABAC : Yes<br>
Format settings, Reference fra : 2 frames<br>
Codec ID : V_MPEG4/ISO/AVC<br>
Duration : 1 h 54 min<br>
Bit rate mode : Variable<br>
Bit rate : 24.9 Mb/s<br>
Width : 1920 pixels<br>
Height : 1080 pixels<br>
Display aspect ratio : 16:9<br>
Frame rate mode : Constant<br>
Frame rate : 23.976 (24000/1001) FPS<br>
Color space : YUV<br>
Chroma subsampling : 4:2:0<br>
Bit depth : 8 bits<br>
Scan type : Progressive<br>
Bits/(Pixel*Frame) : 0.501<br>
Stream size : 19.9 GiB (85%)<br>
Title : The Net (1080p) (DTS-HD) (MA) (5.1) (Bluray) (Remux) (1995) [MAVERICK]<br>
Language : English<br>
Default : Yes<br>
Forced : No<br>
<br>
Audio<br>
ID : 2<br>
Format : DTS XLL<br>
Format/Info : Digital Theater Systems<br>
Commercial name : DTS-HD Master Audio<br>
Codec ID : A_DTS<br>
Duration : 1 h 54 min<br>
Bit rate mode : Variable<br>
Bit rate : 4222 kb/s<br>
Channel(s) : 6 channels<br>
Channel layout : C L R Ls Rs LFE<br>
Sampling rate : 48.0 kHz<br>
Frame rate : 93.750 FPS (512 SPF)<br>
Bit depth : 24 bits<br>
Compression mode : Lossless<br>
Stream size : 3.37 GiB (15%)<br>
Title : DTS-HD MA 5.1<br>
Language : English<br>
Default : Yes<br>
Forced : No<br>
<br>
Menu<br>
00:00:00.000 : en:Start<br>
00:03:32.879 : en:Angela Bennett<br>
00:10:18.201 : en:CALL ASAP DALE<br>
00:14:15.897 : en:Crash Landing<br>
00:18:36.824 : en:Jack Devlin<br>
00:24:59.289 : en:Stealing Angela's Purse<br>
00:27:31.192 : en:On Jack's Boat<br>
00:35:34.049 : en:Escape &amp; Aftermath<br>
00:37:46.956 : en:Checked Out<br>
00:39:21.651 : en:Ruth Marx<br>
00:40:55.913 : en:House For Sale<br>
00:49:35.432 : en<img src="styles/default/xenforo/smilies/exciting-48.png" class="mceSmilie" alt=":D" title="Big Grin    :D">r. Champion<br>
00:55:00.047 : en:US Naval Hospital Records<br>
00:57:22.397 : en:Calling Cyberbob<br>
00:59:58.803 : en:With Alan<br>
01:03:52.681 : en:At the Hospital<br>
01:07:59.826 : en:Greeting an Old Lover<br>
01:10:46.618 : en:Merry-Go-Round Target<br>
01:13:07.217 : en:Code Blue<br>
01:17:54.086 : en:Off-Road Chase<br>
01:19:37.898 : en:Court-appointed Attorney<br>
01:24:24.477 : en:Ben Phillips, FBI<br>
01:27:20.486 : en:Bridge Escape<br>
01:30:20.039 : en:At Cathedral Software<br>
01:36:01.422 : en:WHO IS PRAETORIAN<br>
01:41:26.080 : en<img src="styles/default/xenforo/smilies/grimace-48.png" class="mceSmilie" alt=":p" title="Stick Out Tongue    :p">an Pacific Computer Convention<br>
01:45:06.301 : en:Back Room Area Shooting<br>
01:46:12.450 : en:The Right Thing<br>
01:50:45.903 : en:End Credits</div>
</div>
<div class="ToggleTriggerAnchor bbCodeSpoilerContainer">
<button type="button" class="button bbCodeSpoilerButton ToggleTrigger Tooltip JsOnly" data-target="> .SpoilerTarget"><span>Spoiler: <span class="SpoilerTitle">Download:</span></span></button>
<div class="SpoilerTarget bbCodeSpoilerText">
<div class="bbCodeBlock bbCodeVfcHH HiddenContent">
<div class="attribution type">Hidden Content:</div>
<blockquote>You must either reply or click 'Like' to see the hidden information contained here.</blockquote>
</div></div>
</div><div style="text-align: center"><b>Please Note This File Has Been uploaded to Gofile, because its free fast upload and download speeds Grab it while you can, Admin should reupload My files to google drive.<br>
<br>
<b>Please Credit Me Maverick if you are going to upload my files elsewhere!</b></b><br>
<br>
<b><b>New Content will only Be Uploaded from this Account <a href="https://sharemania.us/members/176676/" class="username" data-user="176676, @Maverick">@Maverick</a></b></b>​</div><br>
<div style="text-align: center"><b>Enjoy <img src="styles/default/xenforo/smilies/big_smile-48.png" class="mceSmilie" alt=":)" title="Smile    :)"></b>​</div>
<div class="messageTextEndMarker">&nbsp;</div>
</blockquote>
</article>]]></description>
                <author><![CDATA[Maverick]]></author>
                </item>

                </channel></rss>